<svg width="880" height="557" viewBox="0 0 880 557" fill="none" xmlns="http://www.w3.org/2000/svg">
<rect width="880" height="557" fill="white"/>
<g clip-path="url(#clip0_1211_5828)">
<path d="M489.311 343.341C458.026 366.445 412.68 378.772 373.639 378.772C318.896 378.772 269.614 358.485 232.33 324.745C229.401 322.091 232.025 318.476 235.541 320.542C275.777 343.998 325.528 358.11 376.92 358.11C411.579 358.11 449.707 350.925 484.764 336.015C490.06 333.761 494.49 339.49 489.311 343.341Z" fill="#FF9900"/>
<path d="M502.317 328.431C498.333 323.312 475.883 326.012 465.807 327.21C462.737 327.586 462.268 324.909 465.033 322.983C482.914 310.375 512.253 314.014 515.675 318.241C519.096 322.49 514.784 351.958 497.982 366.022C495.404 368.182 492.943 367.032 494.092 364.167C497.865 354.728 506.324 333.573 502.317 328.431Z" fill="#FF9900"/>
<path d="M466.509 233.971V221.715C466.509 219.86 467.915 218.615 469.603 218.615H524.369C526.126 218.615 527.532 219.883 527.532 221.715V232.21C527.509 233.971 526.032 236.272 523.408 239.912L495.029 280.508C505.574 280.25 516.706 281.823 526.267 287.224C528.423 288.445 529.009 290.229 529.173 291.99V305.068C529.173 306.853 527.204 308.942 525.142 307.862C508.293 299.01 485.913 298.048 467.283 307.956C465.384 308.989 463.393 306.923 463.393 305.139V292.718C463.393 290.722 463.416 287.317 465.408 284.289L498.286 237.047H469.673C467.915 237.047 466.509 235.803 466.509 233.971Z" fill="#221F1F"/>
<path d="M266.732 310.445H250.07C248.476 310.328 247.211 309.13 247.094 307.604V221.926C247.094 220.212 248.523 218.85 250.304 218.85H265.841C267.458 218.92 268.747 220.165 268.864 221.714V232.914H269.169C273.223 222.09 280.839 217.042 291.103 217.042C301.532 217.042 308.046 222.09 312.733 232.914C316.764 222.09 325.927 217.042 335.746 217.042C342.729 217.042 350.369 219.93 355.032 226.41C360.305 233.619 359.227 244.091 359.227 253.272L359.203 307.346C359.203 309.06 357.774 310.445 355.993 310.445H339.355C337.691 310.328 336.355 308.989 336.355 307.346V261.936C336.355 258.32 336.683 249.303 335.886 245.875C334.644 240.123 330.918 238.503 326.091 238.503C322.06 238.503 317.842 241.203 316.131 245.523C314.42 249.843 314.585 257.075 314.585 261.936V307.346C314.585 309.06 313.155 310.445 311.374 310.445H294.736C293.048 310.328 291.736 308.989 291.736 307.346L291.713 261.936C291.713 252.379 293.283 238.315 281.448 238.315C269.473 238.315 269.942 252.027 269.942 261.936V307.346C269.942 309.06 268.513 310.445 266.732 310.445Z" fill="#221F1F"/>
<path d="M574.682 217.042C599.406 217.042 612.787 238.315 612.787 265.364C612.787 291.497 598 312.23 574.682 312.23C550.404 312.23 537.188 290.957 537.188 264.448C537.188 237.775 550.569 217.042 574.682 217.042ZM574.823 234.535C562.543 234.535 561.77 251.299 561.77 261.748C561.77 272.22 561.606 294.573 574.682 294.573C587.595 294.573 588.204 276.54 588.204 265.551C588.204 258.32 587.899 249.679 585.72 242.823C583.845 236.859 580.119 234.535 574.823 234.535Z" fill="#221F1F"/>
<path d="M644.844 310.445H628.253C626.589 310.328 625.253 308.989 625.253 307.346L625.229 221.644C625.37 220.071 626.753 218.85 628.44 218.85H643.883C645.336 218.92 646.531 219.907 646.859 221.245V234.347H647.164C651.827 222.63 658.366 217.042 669.872 217.042C677.347 217.042 684.635 219.742 689.322 227.138C693.681 233.994 693.681 245.523 693.681 253.812V307.745C693.494 309.248 692.111 310.445 690.471 310.445H673.762C672.239 310.328 670.973 309.201 670.809 307.745V261.208C670.809 251.839 671.887 238.127 660.381 238.127C656.327 238.127 652.601 240.851 650.749 244.983C648.406 250.219 648.101 255.432 648.101 261.208V307.346C648.078 309.06 646.625 310.445 644.844 310.445Z" fill="#221F1F"/>
<path d="M422.852 269.52V265.904C410.806 265.904 398.082 268.487 398.082 282.715C398.082 289.924 401.808 294.808 408.205 294.808C412.892 294.808 417.087 291.919 419.735 287.224C423.016 281.447 422.852 276.024 422.852 269.52ZM439.654 310.21C438.553 311.196 436.959 311.267 435.717 310.61C430.187 306.007 429.202 303.871 426.156 299.48C417.017 308.825 410.549 311.619 398.691 311.619C384.677 311.619 373.757 302.955 373.757 285.603C373.757 272.055 381.092 262.828 391.52 258.32C400.566 254.328 413.197 253.624 422.852 252.52V250.36C422.852 246.392 423.156 241.696 420.836 238.268C418.798 235.192 414.907 233.924 411.486 233.924C405.135 233.924 399.464 237.188 398.082 243.95C397.8 245.453 396.699 246.932 395.199 247.002L379.03 245.265C377.67 244.96 376.171 243.856 376.546 241.766C380.272 222.137 397.964 216.22 413.806 216.22C421.914 216.22 432.507 218.38 438.904 224.532C447.012 232.116 446.239 242.236 446.239 253.248V279.264C446.239 287.083 449.473 290.511 452.519 294.737C453.597 296.24 453.832 298.048 452.473 299.175C449.075 302.016 443.029 307.299 439.701 310.257L439.654 310.21Z" fill="#221F1F"/>
<path d="M204.42 269.52V265.904C192.375 265.904 179.65 268.487 179.65 282.715C179.65 289.924 183.376 294.808 189.774 294.808C194.46 294.808 198.655 291.919 201.303 287.224C204.584 281.447 204.42 276.024 204.42 269.52ZM221.222 310.21C220.121 311.196 218.527 311.267 217.285 310.61C211.755 306.007 210.771 303.871 207.724 299.48C198.585 308.825 192.117 311.619 180.259 311.619C166.246 311.619 155.325 302.955 155.325 285.603C155.325 272.055 162.66 262.828 173.088 258.32C182.134 254.328 194.765 253.624 204.42 252.52V250.36C204.42 246.392 204.725 241.696 202.405 238.268C200.366 235.192 196.476 233.924 193.054 233.924C186.704 233.924 181.033 237.188 179.65 243.95C179.369 245.453 178.267 246.932 176.768 247.002L160.598 245.265C159.239 244.96 157.739 243.856 158.114 241.766C161.84 222.137 179.533 216.22 195.374 216.22C203.483 216.22 214.075 218.38 220.473 224.532C228.581 232.116 227.807 242.236 227.807 253.248V279.264C227.807 287.083 231.041 290.511 234.088 294.737C235.166 296.24 235.4 298.048 234.041 299.175C230.643 302.016 224.597 307.299 221.269 310.257L221.222 310.21Z" fill="#221F1F"/>
</g>
<defs>
<clipPath id="clip0_1211_5828">
<rect width="539" height="163" fill="white" transform="translate(155 216)"/>
</clipPath>
</defs>
</svg>
