<svg width="880" height="557" viewBox="0 0 880 557" fill="none" xmlns="http://www.w3.org/2000/svg">
<rect width="880" height="557" fill="white"/>
<path d="M262.585 271.437C260.808 271.436 259.048 271.789 257.409 272.476C255.77 273.164 254.285 274.171 253.041 275.44C252.813 275.668 251.749 277.054 251.427 277.442C248.023 281.699 243.381 284.793 238.143 286.297C232.905 287.8 227.328 287.64 222.185 285.836C217.042 284.033 212.587 280.677 209.434 276.231C206.282 271.785 204.589 266.47 204.589 261.02C204.589 255.57 206.282 250.254 209.434 245.809C212.587 241.363 217.042 238.006 222.185 236.203C227.328 234.4 232.905 234.239 238.143 235.743C243.381 237.247 248.023 240.341 251.427 244.598C251.766 245.019 252.895 246.31 253.041 246.534C255.241 248.791 258.166 250.2 261.302 250.514C264.438 250.827 267.584 250.025 270.188 248.249C272.791 246.472 274.685 243.834 275.536 240.8C276.387 237.765 276.141 234.528 274.841 231.656C274.455 230.818 273.989 230.018 273.452 229.267L273.354 229.138C266.67 220.254 257.363 213.697 246.748 210.394C236.132 207.09 224.747 207.209 214.203 210.732C203.659 214.255 194.49 221.005 187.993 230.026C181.496 239.047 178 249.883 178 261C178 272.117 181.496 282.953 187.993 291.974C194.49 300.995 203.659 307.745 214.203 311.268C224.747 314.791 236.132 314.91 246.748 311.606C257.363 308.303 266.67 301.746 273.354 292.862L273.452 292.749C273.99 291.988 274.456 291.176 274.841 290.327C275.764 288.284 276.159 286.042 275.989 283.807C275.82 281.572 275.092 279.416 273.872 277.535C272.651 275.655 270.979 274.111 269.007 273.046C267.035 271.98 264.827 271.427 262.585 271.437Z" fill="#00D498"/>
<path d="M262.586 298.235C260.809 298.237 259.049 297.884 257.41 297.196C255.771 296.509 254.286 295.501 253.042 294.232C252.814 294.005 252.59 293.763 252.379 293.522C252.168 293.281 251.75 292.649 251.411 292.231C250.366 290.793 249.617 289.162 249.209 287.432C248.801 285.702 248.741 283.908 249.032 282.155C249.324 280.402 249.961 278.724 250.907 277.219C251.853 275.715 253.089 274.413 254.543 273.391C255.996 272.368 257.639 271.645 259.375 271.264C261.111 270.882 262.905 270.85 264.654 271.168C266.403 271.487 268.07 272.15 269.56 273.119C271.05 274.088 272.332 275.344 273.332 276.814L273.43 276.926C273.984 277.68 274.466 278.486 274.868 279.332C275.794 281.376 276.191 283.621 276.022 285.859C275.854 288.097 275.125 290.257 273.903 292.139C272.681 294.022 271.005 295.567 269.029 296.632C267.054 297.698 264.842 298.249 262.597 298.235" fill="#FFDC60"/>
<path d="M596.463 277.136H593.687C593.334 277.121 592.988 277.032 592.67 276.877C592.353 276.721 592.072 276.501 591.844 276.231C591.616 275.96 591.447 275.646 591.347 275.307C591.247 274.968 591.219 274.612 591.264 274.261V255.891H595.559C596.119 255.927 596.68 255.847 597.208 255.658C597.735 255.469 598.219 255.173 598.628 254.789C599.037 254.406 599.363 253.942 599.585 253.428C599.808 252.913 599.923 252.359 599.923 251.798C599.923 251.237 599.808 250.682 599.585 250.168C599.363 249.653 599.037 249.19 598.628 248.806C598.219 248.423 597.735 248.127 597.208 247.938C596.68 247.748 596.119 247.669 595.559 247.705H591.264V240.895C591.288 240.614 591.288 240.333 591.264 240.052C591.277 239.419 591.163 238.789 590.928 238.201C590.694 237.612 590.344 237.076 589.899 236.625C589.454 236.174 588.924 235.816 588.339 235.573C587.753 235.33 587.126 235.207 586.492 235.21C585.243 235.214 584.047 235.712 583.164 236.595C582.281 237.478 581.783 238.675 581.779 239.923V274.264C581.718 275.862 581.981 277.455 582.552 278.948C583.123 280.442 583.99 281.804 585.102 282.953C586.213 284.103 587.546 285.015 589.019 285.636C590.493 286.257 592.077 286.573 593.676 286.565H596.452C597.702 286.565 598.901 286.068 599.785 285.185C600.669 284.301 601.165 283.102 601.165 281.852C601.165 280.602 600.669 279.403 599.785 278.519C598.901 277.635 597.702 277.138 596.452 277.138" fill="#03292D"/>
<path d="M435.77 277.136H433.058C432.7 277.13 432.346 277.048 432.021 276.896C431.696 276.745 431.407 276.526 431.172 276.255C430.938 275.983 430.763 275.666 430.659 275.322C430.556 274.979 430.526 274.618 430.571 274.262V239.997C430.571 238.747 430.074 237.548 429.19 236.664C428.307 235.78 427.108 235.284 425.858 235.284C424.608 235.284 423.409 235.78 422.525 236.664C421.641 237.548 421.144 238.747 421.144 239.997V274.265C421.083 275.864 421.347 277.459 421.919 278.953C422.491 280.448 423.36 281.811 424.473 282.96C425.587 284.11 426.921 285.022 428.397 285.642C429.872 286.261 431.458 286.576 433.058 286.566H435.818C437.068 286.566 438.267 286.069 439.15 285.185C440.034 284.301 440.531 283.102 440.531 281.852C440.531 280.602 440.034 279.404 439.15 278.52C438.267 277.636 437.068 277.139 435.818 277.139" fill="#03292D"/>
<path d="M572.489 247.708C571.529 247.706 570.592 247.995 569.799 248.537C569.007 249.079 568.397 249.848 568.051 250.743C565.101 248.862 561.699 247.809 558.202 247.694C554.705 247.578 551.241 248.405 548.173 250.088C545.106 251.77 542.546 254.247 540.764 257.257C538.981 260.268 538.041 263.703 538.041 267.202C538.041 270.701 538.981 274.135 540.764 277.146C542.546 280.157 545.106 282.633 548.173 284.315C551.241 285.998 554.705 286.825 558.202 286.709C561.699 286.594 565.101 285.541 568.051 283.66C568.331 284.398 568.791 285.053 569.39 285.566L569.536 285.679C570.369 286.348 571.406 286.713 572.475 286.712C573.735 286.694 574.939 286.185 575.83 285.294C576.721 284.403 577.229 283.199 577.248 281.939V252.464C577.248 251.205 576.747 249.997 575.857 249.107C574.967 248.217 573.76 247.717 572.501 247.717M557.6 277.212C555.623 277.212 553.691 276.626 552.048 275.528C550.404 274.43 549.123 272.869 548.367 271.043C547.611 269.217 547.413 267.207 547.798 265.269C548.184 263.33 549.136 261.55 550.533 260.152C551.931 258.754 553.712 257.802 555.65 257.417C557.589 257.031 559.598 257.229 561.424 257.986C563.25 258.742 564.811 260.023 565.909 261.666C567.007 263.31 567.594 265.242 567.594 267.218C567.594 269.869 566.541 272.411 564.667 274.285C562.792 276.159 560.25 277.212 557.6 277.212Z" fill="#03292D"/>
<path d="M517.946 247.738C514.243 247.973 510.751 249.545 508.12 252.162C506.553 250.625 504.679 249.435 502.62 248.673C500.561 247.911 498.364 247.592 496.173 247.738C492.162 248.026 488.412 249.829 485.683 252.783C482.954 255.736 481.453 259.617 481.483 263.638V281.849C481.688 282.962 482.277 283.969 483.147 284.693C484.017 285.418 485.113 285.814 486.245 285.814C487.378 285.814 488.474 285.418 489.344 284.693C490.214 283.969 490.803 282.962 491.008 281.849V263.349C491.009 262.484 491.192 261.629 491.547 260.84C491.902 260.052 492.419 259.347 493.065 258.772C493.712 258.197 494.472 257.766 495.297 257.506C496.122 257.246 496.993 257.163 497.852 257.263C499.361 257.468 500.744 258.218 501.74 259.371C502.736 260.525 503.276 262.002 503.258 263.526V281.849C503.409 282.969 503.946 284.001 504.778 284.766C505.609 285.532 506.682 285.982 507.811 286.04C508.939 286.098 510.053 285.759 510.958 285.082C511.863 284.405 512.503 283.433 512.766 282.334V263.349C512.772 262.486 512.96 261.635 513.316 260.849C513.673 260.064 514.191 259.362 514.836 258.789C515.481 258.217 516.24 257.787 517.063 257.527C517.885 257.267 518.753 257.183 519.61 257.28C521.127 257.474 522.52 258.216 523.526 259.368C524.531 260.52 525.08 262 525.068 263.529V282.432C525.193 283.642 525.769 284.761 526.682 285.565L526.828 285.678C527.661 286.347 528.698 286.712 529.767 286.711C531.027 286.692 532.23 286.184 533.121 285.293C534.012 284.402 534.521 283.198 534.539 281.938V263.349C534.535 261.209 534.092 259.093 533.239 257.13C532.385 255.168 531.139 253.401 529.577 251.938C528.015 250.476 526.169 249.349 524.155 248.626C522.141 247.904 520 247.602 517.864 247.738" fill="#03292D"/>
<path d="M355.97 247.739C354.2 247.844 352.462 248.259 350.835 248.965V240.086C350.731 238.897 350.185 237.791 349.305 236.984C348.425 236.178 347.275 235.731 346.081 235.731C344.888 235.731 343.738 236.178 342.857 236.984C341.977 237.791 341.431 238.897 341.327 240.086V281.849V281.947C341.317 282.631 341.456 283.309 341.735 283.934C342.013 284.558 342.425 285.114 342.941 285.563L343.087 285.675C343.92 286.345 344.958 286.71 346.026 286.708C347.199 286.689 348.325 286.245 349.195 285.458C350.065 284.671 350.62 283.595 350.757 282.43V263.341C350.758 262.476 350.941 261.621 351.296 260.833C351.651 260.044 352.168 259.339 352.814 258.764C353.461 258.189 354.221 257.758 355.046 257.498C355.871 257.238 356.741 257.155 357.601 257.255C359.113 257.457 360.5 258.205 361.499 259.359C362.499 260.512 363.041 261.992 363.024 263.518V281.824C362.982 282.475 363.074 283.128 363.295 283.742C363.515 284.356 363.859 284.918 364.305 285.394C364.752 285.87 365.291 286.25 365.89 286.509C366.488 286.768 367.134 286.902 367.787 286.902C368.439 286.902 369.085 286.768 369.683 286.509C370.282 286.25 370.821 285.87 371.268 285.394C371.714 284.918 372.058 284.356 372.278 283.742C372.499 283.128 372.591 282.475 372.549 281.824V263.35C372.544 261.21 372.102 259.093 371.248 257.131C370.395 255.168 369.149 253.402 367.587 251.939C366.024 250.476 364.179 249.349 362.165 248.627C360.151 247.905 358.01 247.602 355.874 247.739" fill="#03292D"/>
<path d="M415.656 251.786C415.664 251.668 415.664 251.549 415.656 251.43V251.253C415.635 251.144 415.608 251.036 415.575 250.93C415.568 250.876 415.568 250.821 415.575 250.767C415.575 250.669 415.493 250.574 415.446 250.461V250.315L415.3 250.035L415.201 249.889L415.008 249.608L414.909 249.479C414.842 249.385 414.766 249.299 414.682 249.221L414.587 249.108C414.476 248.992 414.356 248.884 414.23 248.785L413.89 248.527L413.728 248.429L413.517 248.3L413.34 248.202L413.13 248.103L412.936 248.022L412.725 247.941H411.215C410.291 247.938 409.386 248.206 408.611 248.71C407.837 249.215 407.227 249.935 406.856 250.781C403.907 248.904 400.509 247.854 397.016 247.74C393.523 247.627 390.063 248.454 386.999 250.135C383.935 251.817 381.38 254.291 379.599 257.298C377.819 260.306 376.88 263.737 376.88 267.232C376.88 270.727 377.819 274.157 379.599 277.165C381.38 280.173 383.935 282.647 386.999 284.328C390.063 286.009 393.523 286.837 397.016 286.723C400.509 286.609 403.907 285.559 406.856 283.682C407.266 284.708 408.022 285.559 408.993 286.088C409.964 286.617 411.089 286.79 412.174 286.577C413.259 286.365 414.236 285.781 414.936 284.925C415.637 284.07 416.016 282.996 416.01 281.891V251.786M396.056 277.2C394.08 277.2 392.147 276.614 390.504 275.516C388.861 274.418 387.58 272.857 386.823 271.031C386.067 269.205 385.869 267.195 386.255 265.257C386.64 263.318 387.592 261.537 388.99 260.14C390.387 258.742 392.168 257.79 394.107 257.405C396.045 257.019 398.055 257.217 399.881 257.973C401.707 258.73 403.268 260.011 404.366 261.654C405.464 263.298 406.05 265.23 406.05 267.206C406.05 269.857 404.997 272.399 403.123 274.273C401.249 276.147 398.707 277.2 396.056 277.2Z" fill="#03292D"/>
<path d="M638.29 262.544C637.82 258.49 635.81 254.772 632.676 252.157L632.448 251.981H632.336C629.414 249.68 625.895 248.263 622.194 247.896C618.493 247.53 614.765 248.229 611.448 249.912C608.131 251.595 605.365 254.191 603.476 257.394C601.586 260.597 600.652 264.274 600.783 267.991C600.914 271.707 602.105 275.309 604.216 278.371C606.326 281.433 609.269 283.828 612.696 285.273C616.123 286.718 619.891 287.152 623.557 286.526C627.223 285.899 630.633 284.238 633.386 281.737L633.644 281.496C634.287 280.824 634.72 279.978 634.889 279.064C635.058 278.149 634.956 277.205 634.595 276.348C634.235 275.491 633.632 274.757 632.861 274.238C632.089 273.719 631.183 273.436 630.253 273.425C629.05 273.433 627.894 273.901 627.025 274.733C625.174 276.367 622.778 277.248 620.31 277.203C618.585 277.204 616.889 276.758 615.387 275.909C613.885 275.061 612.627 273.839 611.737 272.361L630.264 271.875C631.428 271.852 632.573 271.585 633.626 271.091C634.679 270.597 635.617 269.887 636.378 269.007C637.139 268.127 637.707 267.097 638.044 265.984C638.381 264.87 638.48 263.698 638.335 262.544M611.386 262.825C612.033 261.491 612.969 260.319 614.128 259.394C615.286 258.469 616.636 257.814 618.08 257.478C619.524 257.142 621.024 257.134 622.472 257.453C623.92 257.771 625.278 258.41 626.447 259.321C627.447 260.098 628.185 261.163 628.56 262.373L611.386 262.825Z" fill="#03292D"/>
<path d="M469.333 266.103C469.768 265.781 470.175 265.458 470.543 265.135C474.498 261.615 476.438 256.208 476.438 248.62C476.393 247.379 475.872 246.202 474.984 245.334C474.096 244.466 472.908 243.972 471.666 243.955C470.444 243.954 469.27 244.425 468.388 245.271C467.506 246.116 466.986 247.27 466.936 248.491C466.936 253.333 466.094 256.419 464.241 258.064C461.414 260.015 457.959 260.838 454.556 260.371V240.086C454.452 238.897 453.906 237.791 453.026 236.984C452.146 236.178 450.996 235.731 449.802 235.731C448.609 235.731 447.458 236.178 446.578 236.984C445.698 237.791 445.152 238.897 445.048 240.086V281.849C444.99 282.508 445.07 283.172 445.283 283.799C445.495 284.426 445.836 285.002 446.283 285.49C446.73 285.978 447.274 286.367 447.88 286.634C448.486 286.901 449.14 287.038 449.802 287.038C450.464 287.038 451.118 286.901 451.724 286.634C452.33 286.367 452.874 285.978 453.321 285.49C453.768 285.002 454.109 284.426 454.321 283.799C454.534 283.172 454.614 282.508 454.556 281.849V269.857H456.187C457.51 269.858 458.831 269.772 460.142 269.598L469.297 284.272C469.631 284.82 470.071 285.296 470.59 285.674C471.11 286.051 471.699 286.322 472.324 286.471C472.949 286.619 473.597 286.643 474.23 286.54C474.864 286.436 475.471 286.209 476.017 285.87C476.562 285.531 477.035 285.088 477.408 284.565C477.782 284.043 478.048 283.451 478.191 282.825C478.335 282.199 478.353 281.551 478.245 280.918C478.137 280.285 477.904 279.68 477.561 279.137L469.333 266.103Z" fill="#03292D"/>
<path d="M335.941 273.23C335.52 272.656 334.979 272.179 334.356 271.834C333.733 271.488 333.043 271.281 332.333 271.228C331.622 271.175 330.909 271.276 330.241 271.525C329.573 271.773 328.968 272.164 328.465 272.669C328.367 272.669 327.98 273.25 327.851 273.396C326.599 274.967 324.89 276.109 322.96 276.666C321.03 277.223 318.975 277.165 317.079 276.502C315.184 275.839 313.541 274.603 312.378 272.966C311.216 271.328 310.592 269.369 310.592 267.36C310.592 265.352 311.216 263.393 312.378 261.755C313.541 260.117 315.184 258.881 317.079 258.218C318.975 257.555 321.03 257.498 322.96 258.055C324.89 258.611 326.599 259.754 327.851 261.325C327.963 261.488 328.384 261.954 328.465 262.035C329.129 262.782 330.008 263.306 330.982 263.534C331.955 263.762 332.975 263.683 333.902 263.308C334.828 262.933 335.616 262.28 336.157 261.44C336.698 260.599 336.966 259.612 336.924 258.613C336.946 257.86 336.785 257.112 336.455 256.435C336.318 256.12 336.144 255.822 335.938 255.548C333.524 252.314 330.166 249.91 326.328 248.665C322.49 247.42 318.36 247.396 314.508 248.597C310.655 249.798 307.27 252.164 304.82 255.37C302.369 258.575 300.972 262.462 300.823 266.495C300.674 270.527 301.78 274.506 303.987 277.884C306.195 281.262 309.396 283.872 313.149 285.354C316.902 286.836 321.023 287.117 324.942 286.159C328.862 285.201 332.388 283.05 335.034 280.004C335.622 279.548 336.096 278.963 336.421 278.294C336.745 277.625 336.912 276.89 336.907 276.147C336.901 275.467 336.747 274.796 336.455 274.182C336.318 273.867 336.144 273.569 335.938 273.295" fill="#03292D"/>
<path d="M642.546 280.252C642.107 279.636 641.884 278.893 641.912 278.138C641.927 277.508 642.103 276.893 642.422 276.35C642.741 275.807 643.194 275.355 643.737 275.036C644.341 274.629 645.052 274.409 645.78 274.401C646.314 274.424 646.838 274.555 647.32 274.785C647.802 275.015 648.233 275.34 648.587 275.74C649.849 277.086 651.351 278.186 653.014 278.983C654.761 279.735 656.65 280.099 658.55 280.049C662.216 279.909 664.05 278.522 664.05 275.889C664.063 275.25 663.895 274.621 663.564 274.074C663.234 273.527 662.755 273.086 662.183 272.801C660.336 271.863 658.384 271.146 656.369 270.665C654.099 270.072 651.873 269.322 649.708 268.419C647.971 267.651 646.445 266.474 645.261 264.989C643.935 263.212 643.274 261.027 643.394 258.813C643.349 256.684 644.034 254.604 645.334 252.918C646.671 251.223 648.416 249.895 650.407 249.058C652.507 248.139 654.776 247.671 657.068 247.682C659.526 247.693 661.963 248.147 664.26 249.021C666.472 249.784 668.426 251.151 669.9 252.968C670.492 253.677 670.816 254.571 670.815 255.495C670.821 256.016 670.702 256.53 670.47 256.996C670.237 257.462 669.896 257.865 669.476 258.173C668.838 258.681 668.045 258.955 667.23 258.948C666.764 258.963 666.3 258.883 665.865 258.713C665.431 258.544 665.036 258.287 664.704 257.96C663.816 256.894 662.692 256.049 661.422 255.492C659.99 254.862 658.439 254.55 656.874 254.577C653.302 254.577 651.515 255.869 651.515 258.454C651.496 258.917 651.574 259.379 651.744 259.81C651.914 260.242 652.173 260.632 652.504 260.958C653.221 261.627 654.075 262.132 655.008 262.437C656.018 262.789 657.44 263.224 659.272 263.742C661.436 264.317 663.556 265.047 665.616 265.926C667.316 266.692 668.791 267.882 669.9 269.382C671.149 271.176 671.769 273.333 671.663 275.516C671.703 277.701 670.98 279.832 669.619 281.543C668.234 283.283 666.424 284.636 664.364 285.473C662.278 286.354 660.037 286.808 657.773 286.809C654.811 286.835 651.87 286.31 649.101 285.26C646.475 284.265 644.197 282.524 642.546 280.252Z" fill="#03292D" stroke="#03292D"/>
<path d="M681.681 210.726C684.372 210.701 687.019 211.407 689.339 212.769C691.63 214.102 693.528 216.015 694.841 218.316C696.185 220.636 696.883 223.272 696.863 225.952C696.877 228.624 696.179 231.252 694.841 233.565C693.522 235.887 691.617 237.823 689.317 239.18C686.982 240.572 684.309 241.294 681.591 241.268C678.898 241.293 676.249 240.578 673.933 239.202C671.648 237.861 669.758 235.939 668.454 233.633C667.132 231.322 666.446 228.703 666.466 226.042C666.452 223.37 667.15 220.742 668.487 218.429C669.803 216.111 671.699 214.176 673.99 212.814C676.312 211.422 678.974 210.7 681.681 210.726ZM681.591 238.304C683.806 238.328 685.986 237.754 687.902 236.642C689.774 235.564 691.325 234.005 692.394 232.128C693.48 230.252 694.046 228.12 694.033 225.952C694.049 223.798 693.483 221.679 692.394 219.821C691.319 217.968 689.778 216.427 687.925 215.352C686.032 214.243 683.875 213.668 681.681 213.69C679.478 213.671 677.312 214.253 675.416 215.375C673.55 216.461 672.002 218.018 670.924 219.888C669.833 221.755 669.263 223.88 669.273 226.042C669.26 228.194 669.822 230.311 670.902 232.173C671.964 234.028 673.498 235.57 675.348 236.642C677.24 237.751 679.398 238.326 681.591 238.304ZM688.149 223.212C688.181 224.263 687.908 225.3 687.363 226.199C686.828 227.032 686.053 227.682 685.14 228.063L688.463 233.004H685.23L682.58 228.602H678.717V233.004H675.887V218.092H682.041C683.654 217.989 685.252 218.458 686.555 219.417C687.093 219.885 687.517 220.471 687.794 221.129C688.07 221.787 688.192 222.5 688.149 223.212ZM678.717 226.233H682.041C682.951 226.292 683.851 226.012 684.567 225.447C684.869 225.173 685.107 224.836 685.262 224.459C685.417 224.082 685.487 223.675 685.465 223.268C685.492 222.871 685.424 222.472 685.268 222.106C685.112 221.739 684.872 221.414 684.567 221.157C683.832 220.635 682.94 220.381 682.041 220.439H678.717V226.233Z" fill="#03292D"/>
</svg>
