<svg width="612" height="761" viewBox="0 0 612 761" fill="none" xmlns="http://www.w3.org/2000/svg">
<path d="M47.4067 665.552C36.3336 691.216 25.356 719.155 14.5 749.5L47.4067 665.552ZM47.4067 665.552C92.1248 561.905 138.4 495.336 184.513 457.044M47.4067 665.552L156.283 387.796M184.513 457.044C262.49 392.293 340.001 408.404 408.726 462.831M184.513 457.044L156.283 387.796M184.513 457.044L292.615 722.219L408.726 462.831M408.726 462.831C486.538 524.455 553.086 635.198 596.294 733.306M408.726 462.831L443.649 384.814M596.294 733.306C596.867 734.607 597.436 735.905 598 737.2L596.294 733.306ZM596.294 733.306L443.649 384.814M443.649 384.814L292.615 40L156.283 387.796M443.649 384.814L598 40M156.283 387.796L14.5 40" stroke="#312F2E" stroke-width="30"/>
</svg>
