<svg width="32" height="32" viewBox="0 0 32 32" fill="none" xmlns="http://www.w3.org/2000/svg">
<path d="M16 5C22.075 5 27 9.925 27 16C27 20.884 23.8155 25.0225 19.4105 26.458C19.4115 26.454 19.4135 26.4475 19.4135 26.4475C19.4135 26.4475 18.671 26.0995 18.687 25.4785C18.7045 24.795 18.687 23.2005 18.687 22.615C18.687 21.61 18.051 20.898 18.051 20.898C18.051 20.898 23.0395 20.954 23.0395 15.6315C23.0395 13.578 21.966 12.509 21.966 12.509C21.966 12.509 22.53 10.3165 21.771 9.3865C20.9205 9.2945 19.3965 10.1995 18.746 10.6225C18.746 10.6225 17.715 10.1995 16 10.1995C14.285 10.1995 13.254 10.6225 13.254 10.6225C12.6035 10.1995 11.08 9.2945 10.229 9.3865C9.47 10.3165 10.034 12.509 10.034 12.509C10.034 12.509 8.9605 13.5775 8.9605 15.6315C8.9605 20.954 13.949 20.898 13.949 20.898C13.949 20.898 13.4465 21.466 13.3365 22.301C12.9885 22.419 12.476 22.565 12.062 22.565C10.9795 22.565 10.156 21.5125 9.854 21.026C9.5565 20.546 8.9465 20.143 8.3775 20.143C8.003 20.143 7.82 20.3305 7.82 20.5445C7.82 20.7585 8.345 20.908 8.6915 21.305C9.422 22.142 9.409 24.024 12.012 24.024C12.2945 24.024 12.8715 23.9545 13.306 23.896C13.3035 24.4885 13.3025 25.114 13.312 25.4795C13.3275 26.1005 12.5855 26.4485 12.5855 26.4485C12.5855 26.4485 12.5875 26.4545 12.5885 26.459C8.1845 25.0225 5 20.884 5 16C5 9.925 9.925 5 16 5Z" fill="white"/>
</svg>
